<svg width="22" height="18" viewBox="0 0 22 18" fill="none" xmlns="http://www.w3.org/2000/svg">
<path d="M0 9C0.94051 3.87976 5.42648 0 10.8187 0C16.2108 0 20.6968 3.87976 21.6373 9C20.6968 14.1202 16.2108 18 10.8187 18C5.42648 18 0.94051 14.1202 0 9ZM10.8187 14C13.5801 14 15.8187 11.7614 15.8187 9C15.8187 6.23858 13.5801 4 10.8187 4C8.0572 4 5.81862 6.23858 5.81862 9C5.81862 11.7614 8.0572 14 10.8187 14ZM10.8187 12C9.16176 12 7.81862 10.6569 7.81862 9C7.81862 7.3431 9.16176 6 10.8187 6C12.4755 6 13.8187 7.3431 13.8187 9C13.8187 10.6569 12.4755 12 10.8187 12Z" fill="black"/>
</svg>
